<svg width="911" height="805" xmlns="http://www.w3.org/2000/svg"><g><path d="M-29,-73L-93,266L-26,49Z" fill="#ffffff" stroke="#ffffff" fill-opacity="1" stroke-opacity="1"/><path d="M-29,-73L-26,49L29,35Z" fill="#ffffff" stroke="#ffffff" fill-opacity="1" stroke-opacity="1"/><path d="M-29,-73L29,35L77,-26Z" fill="#fefefe" stroke="#fefefe" fill-opacity="1" stroke-opacity="1"/><path d="M-29,-73L77,-26L257,-89Z" fill="#f9f9f9" stroke="#f9f9f9" fill-opacity="1" stroke-opacity="1"/><path d="M77,-26L29,35L183,36Z" fill="#f9f9f9" stroke="#f9f9f9" fill-opacity="1" stroke-opacity="1"/><path d="M77,-26L183,36L257,-89Z" fill="#f2f2f2" stroke="#f2f2f2" fill-opacity="1" stroke-opacity="1"/><path d="M257,-89L183,36L337,28Z" fill="#e8e8e8" stroke="#e8e8e8" fill-opacity="1" stroke-opacity="1"/><path d="M257,-89L337,28L423,-79Z" fill="#dfdfdf" stroke="#dfdfdf" fill-opacity="1" stroke-opacity="1"/><path d="M257,-89L423,-79L512,-99Z" fill="#d5d5d5" stroke="#d5d5d5" fill-opacity="1" stroke-opacity="1"/><path d="M423,-79L337,28L496,75Z" fill="#d1d1d1" stroke="#d1d1d1" fill-opacity="1" stroke-opacity="1"/><path d="M423,-79L496,75L512,-99Z" fill="#c7c7c7" stroke="#c7c7c7" fill-opacity="1" stroke-opacity="1"/><path d="M512,-99L496,75L691,-37Z" fill="#bababa" stroke="#bababa" fill-opacity="1" stroke-opacity="1"/><path d="M512,-99L691,-37L802,-100Z" fill="#ababab" stroke="#ababab" fill-opacity="1" stroke-opacity="1"/><path d="M512,-99L802,-100L953,-112Z" fill="#9a9a9a" stroke="#9a9a9a" fill-opacity="1" stroke-opacity="1"/><path d="M691,-37L496,75L723,47Z" fill="#afafaf" stroke="#afafaf" fill-opacity="1" stroke-opacity="1"/><path d="M691,-37L723,47L802,-100Z" fill="#9e9e9e" stroke="#9e9e9e" fill-opacity="1" stroke-opacity="1"/><path d="M802,-100L723,47L847,107Z" fill="#949494" stroke="#949494" fill-opacity="1" stroke-opacity="1"/><path d="M802,-100L847,107L934,76Z" fill="#868686" stroke="#868686" fill-opacity="1" stroke-opacity="1"/><path d="M802,-100L934,76L953,-112Z" fill="#808080" stroke="#808080" fill-opacity="1" stroke-opacity="1"/><path d="M953,-112L934,76L1089,-85Z" fill="#808080" stroke="#808080" fill-opacity="1" stroke-opacity="1"/><path d="M1089,-85L934,76L1166,38Z" fill="#808080" stroke="#808080" fill-opacity="1" stroke-opacity="1"/><path d="M-26,49L-93,266L45,243Z" fill="#ffffff" stroke="#ffffff" fill-opacity="1" stroke-opacity="1"/><path d="M-26,49L45,243L29,35Z" fill="#fefefe" stroke="#fefefe" fill-opacity="1" stroke-opacity="1"/><path d="M29,35L45,243L183,36Z" fill="#fafafa" stroke="#fafafa" fill-opacity="1" stroke-opacity="1"/><path d="M183,36L45,243L266,210Z" fill="#f3f3f3" stroke="#f3f3f3" fill-opacity="1" stroke-opacity="1"/><path d="M183,36L266,210L337,28Z" fill="#e8e8e8" stroke="#e8e8e8" fill-opacity="1" stroke-opacity="1"/><path d="M337,28L266,210L329,219Z" fill="#e2e2e2" stroke="#e2e2e2" fill-opacity="1" stroke-opacity="1"/><path d="M337,28L329,219L496,75Z" fill="#d6d6d6" stroke="#d6d6d6" fill-opacity="1" stroke-opacity="1"/><path d="M496,75L329,219L511,206Z" fill="#cccccc" stroke="#cccccc" fill-opacity="1" stroke-opacity="1"/><path d="M496,75L511,206L723,47Z" fill="#b8b8b8" stroke="#b8b8b8" fill-opacity="1" stroke-opacity="1"/><path d="M723,47L511,206L717,261Z" fill="#aeaeae" stroke="#aeaeae" fill-opacity="1" stroke-opacity="1"/><path d="M723,47L717,261L847,107Z" fill="#999999" stroke="#999999" fill-opacity="1" stroke-opacity="1"/><path d="M847,107L717,261L842,213Z" fill="#919191" stroke="#919191" fill-opacity="1" stroke-opacity="1"/><path d="M847,107L842,213L934,76Z" fill="#838383" stroke="#838383" fill-opacity="1" stroke-opacity="1"/><path d="M934,76L842,213L984,230Z" fill="#808080" stroke="#808080" fill-opacity="1" stroke-opacity="1"/><path d="M934,76L984,230L1166,38Z" fill="#808080" stroke="#808080" fill-opacity="1" stroke-opacity="1"/><path d="M1166,38L984,230L1151,255Z" fill="#808080" stroke="#808080" fill-opacity="1" stroke-opacity="1"/><path d="M1166,38L1151,255L1158,368Z" fill="#7d7d7d" stroke="#7d7d7d" fill-opacity="1" stroke-opacity="1"/><path d="M-93,266L-103,542L-82,407Z" fill="#d9d9d9" stroke="#d9d9d9" fill-opacity="1" stroke-opacity="1"/><path d="M-93,266L-82,407L45,243Z" fill="#efefef" stroke="#efefef" fill-opacity="1" stroke-opacity="1"/><path d="M45,243L-82,407L111,359Z" fill="#e7e7e7" stroke="#e7e7e7" fill-opacity="1" stroke-opacity="1"/><path d="M45,243L111,359L266,210Z" fill="#ebebeb" stroke="#ebebeb" fill-opacity="1" stroke-opacity="1"/><path d="M266,210L111,359L250,356Z" fill="#dedede" stroke="#dedede" fill-opacity="1" stroke-opacity="1"/><path d="M266,210L250,356L329,219Z" fill="#dddddd" stroke="#dddddd" fill-opacity="1" stroke-opacity="1"/><path d="M329,219L250,356L369,422Z" fill="#cbcbcb" stroke="#cbcbcb" fill-opacity="1" stroke-opacity="1"/><path d="M329,219L369,422L511,206Z" fill="#c8c8c8" stroke="#c8c8c8" fill-opacity="1" stroke-opacity="1"/><path d="M511,206L369,422L556,424Z" fill="#adadad" stroke="#adadad" fill-opacity="1" stroke-opacity="1"/><path d="M511,206L556,424L634,424Z" fill="#9f9f9f" stroke="#9f9f9f" fill-opacity="1" stroke-opacity="1"/><path d="M511,206L634,424L717,261Z" fill="#a3a3a3" stroke="#a3a3a3" fill-opacity="1" stroke-opacity="1"/><path d="M717,261L634,424L839,424Z" fill="#818181" stroke="#818181" fill-opacity="1" stroke-opacity="1"/><path d="M717,261L839,424L842,213Z" fill="#838383" stroke="#838383" fill-opacity="1" stroke-opacity="1"/><path d="M842,213L839,424L961,420Z" fill="#676767" stroke="#676767" fill-opacity="1" stroke-opacity="1"/><path d="M842,213L961,420L984,230Z" fill="#737373" stroke="#737373" fill-opacity="1" stroke-opacity="1"/><path d="M984,230L961,420L1158,368Z" fill="#686868" stroke="#686868" fill-opacity="1" stroke-opacity="1"/><path d="M984,230L1158,368L1151,255Z" fill="#737373" stroke="#737373" fill-opacity="1" stroke-opacity="1"/><path d="M-82,407L-103,542L74,569Z" fill="#c4c4c4" stroke="#c4c4c4" fill-opacity="1" stroke-opacity="1"/><path d="M-82,407L74,569L111,359Z" fill="#cecece" stroke="#cecece" fill-opacity="1" stroke-opacity="1"/><path d="M111,359L74,569L245,486Z" fill="#c0c0c0" stroke="#c0c0c0" fill-opacity="1" stroke-opacity="1"/><path d="M111,359L245,486L250,356Z" fill="#c9c9c9" stroke="#c9c9c9" fill-opacity="1" stroke-opacity="1"/><path d="M250,356L245,486L369,422Z" fill="#bbbbbb" stroke="#bbbbbb" fill-opacity="1" stroke-opacity="1"/><path d="M369,422L245,486L421,557Z" fill="#a6a6a6" stroke="#a6a6a6" fill-opacity="1" stroke-opacity="1"/><path d="M369,422L421,557L536,527Z" fill="#929292" stroke="#929292" fill-opacity="1" stroke-opacity="1"/><path d="M369,422L536,527L556,424Z" fill="#949494" stroke="#949494" fill-opacity="1" stroke-opacity="1"/><path d="M556,424L536,527L634,424Z" fill="#878787" stroke="#878787" fill-opacity="1" stroke-opacity="1"/><path d="M634,424L536,527L705,550Z" fill="#777777" stroke="#777777" fill-opacity="1" stroke-opacity="1"/><path d="M634,424L705,550L839,424Z" fill="#6d6d6d" stroke="#6d6d6d" fill-opacity="1" stroke-opacity="1"/><path d="M839,424L705,550L835,541Z" fill="#585858" stroke="#585858" fill-opacity="1" stroke-opacity="1"/><path d="M839,424L835,541L965,542Z" fill="#474747" stroke="#474747" fill-opacity="1" stroke-opacity="1"/><path d="M839,424L965,542L961,420Z" fill="#4d4d4d" stroke="#4d4d4d" fill-opacity="1" stroke-opacity="1"/><path d="M961,420L965,542L1136,504Z" fill="#484848" stroke="#484848" fill-opacity="1" stroke-opacity="1"/><path d="M961,420L1136,504L1158,368Z" fill="#545454" stroke="#545454" fill-opacity="1" stroke-opacity="1"/><path d="M1158,368L1136,504L1136,694Z" fill="#414141" stroke="#414141" fill-opacity="1" stroke-opacity="1"/><path d="M-103,542L-28,1002L-33,840Z" fill="#808080" stroke="#808080" fill-opacity="1" stroke-opacity="1"/><path d="M-103,542L-33,840L-28,719Z" fill="#979797" stroke="#979797" fill-opacity="1" stroke-opacity="1"/><path d="M-103,542L-28,719L33,691Z" fill="#a4a4a4" stroke="#a4a4a4" fill-opacity="1" stroke-opacity="1"/><path d="M-103,542L33,691L74,569Z" fill="#b1b1b1" stroke="#b1b1b1" fill-opacity="1" stroke-opacity="1"/><path d="M74,569L33,691L184,628Z" fill="#a3a3a3" stroke="#a3a3a3" fill-opacity="1" stroke-opacity="1"/><path d="M74,569L184,628L245,486Z" fill="#acacac" stroke="#acacac" fill-opacity="1" stroke-opacity="1"/><path d="M245,486L184,628L389,660Z" fill="#9b9b9b" stroke="#9b9b9b" fill-opacity="1" stroke-opacity="1"/><path d="M245,486L389,660L421,557Z" fill="#959595" stroke="#959595" fill-opacity="1" stroke-opacity="1"/><path d="M421,557L389,660L520,700Z" fill="#757575" stroke="#757575" fill-opacity="1" stroke-opacity="1"/><path d="M421,557L520,700L536,527Z" fill="#797979" stroke="#797979" fill-opacity="1" stroke-opacity="1"/><path d="M536,527L520,700L697,697Z" fill="#5f5f5f" stroke="#5f5f5f" fill-opacity="1" stroke-opacity="1"/><path d="M536,527L697,697L705,550Z" fill="#626262" stroke="#626262" fill-opacity="1" stroke-opacity="1"/><path d="M705,550L697,697L864,657Z" fill="#444444" stroke="#444444" fill-opacity="1" stroke-opacity="1"/><path d="M705,550L864,657L835,541Z" fill="#474747" stroke="#474747" fill-opacity="1" stroke-opacity="1"/><path d="M835,541L864,657L965,542Z" fill="#363636" stroke="#363636" fill-opacity="1" stroke-opacity="1"/><path d="M965,542L864,657L950,705Z" fill="#292929" stroke="#292929" fill-opacity="1" stroke-opacity="1"/><path d="M965,542L950,705L1136,694Z" fill="#262626" stroke="#262626" fill-opacity="1" stroke-opacity="1"/><path d="M965,542L1136,694L1136,504Z" fill="#363636" stroke="#363636" fill-opacity="1" stroke-opacity="1"/><path d="M-28,719L-33,840L69,815Z" fill="#808080" stroke="#808080" fill-opacity="1" stroke-opacity="1"/><path d="M-28,719L69,815L33,691Z" fill="#8a8a8a" stroke="#8a8a8a" fill-opacity="1" stroke-opacity="1"/><path d="M33,691L69,815L184,628Z" fill="#8d8d8d" stroke="#8d8d8d" fill-opacity="1" stroke-opacity="1"/><path d="M184,628L69,815L264,856Z" fill="#787878" stroke="#787878" fill-opacity="1" stroke-opacity="1"/><path d="M184,628L264,856L366,818Z" fill="#6c6c6c" stroke="#6c6c6c" fill-opacity="1" stroke-opacity="1"/><path d="M184,628L366,818L389,660Z" fill="#797979" stroke="#797979" fill-opacity="1" stroke-opacity="1"/><path d="M389,660L366,818L520,700Z" fill="#606060" stroke="#606060" fill-opacity="1" stroke-opacity="1"/><path d="M520,700L366,818L566,873Z" fill="#474747" stroke="#474747" fill-opacity="1" stroke-opacity="1"/><path d="M520,700L566,873L652,836Z" fill="#383838" stroke="#383838" fill-opacity="1" stroke-opacity="1"/><path d="M520,700L652,836L697,697Z" fill="#3d3d3d" stroke="#3d3d3d" fill-opacity="1" stroke-opacity="1"/><path d="M697,697L652,836L818,778Z" fill="#262626" stroke="#262626" fill-opacity="1" stroke-opacity="1"/><path d="M697,697L818,778L864,657Z" fill="#282828" stroke="#282828" fill-opacity="1" stroke-opacity="1"/><path d="M864,657L818,778L950,705Z" fill="#161616" stroke="#161616" fill-opacity="1" stroke-opacity="1"/><path d="M950,705L818,778L973,792Z" fill="#080808" stroke="#080808" fill-opacity="1" stroke-opacity="1"/><path d="M950,705L973,792L1123,782Z" fill="#070707" stroke="#070707" fill-opacity="1" stroke-opacity="1"/><path d="M950,705L1123,782L1136,694Z" fill="#101010" stroke="#101010" fill-opacity="1" stroke-opacity="1"/><path d="M1136,694L1123,782L1113,959Z" fill="#000000" stroke="#000000" fill-opacity="1" stroke-opacity="1"/><path d="M-33,840L-28,1002L124,982Z" fill="#7e7e7e" stroke="#7e7e7e" fill-opacity="1" stroke-opacity="1"/><path d="M-33,840L124,982L69,815Z" fill="#7c7c7c" stroke="#7c7c7c" fill-opacity="1" stroke-opacity="1"/><path d="M69,815L124,982L264,856Z" fill="#747474" stroke="#747474" fill-opacity="1" stroke-opacity="1"/><path d="M264,856L124,982L182,1023Z" fill="#717171" stroke="#717171" fill-opacity="1" stroke-opacity="1"/><path d="M264,856L182,1023L327,1011Z" fill="#696969" stroke="#696969" fill-opacity="1" stroke-opacity="1"/><path d="M264,856L327,1011L366,818Z" fill="#626262" stroke="#626262" fill-opacity="1" stroke-opacity="1"/><path d="M366,818L327,1011L522,1022Z" fill="#545454" stroke="#545454" fill-opacity="1" stroke-opacity="1"/><path d="M366,818L522,1022L566,873Z" fill="#474747" stroke="#474747" fill-opacity="1" stroke-opacity="1"/><path d="M566,873L522,1022L719,982Z" fill="#353535" stroke="#353535" fill-opacity="1" stroke-opacity="1"/><path d="M566,873L719,982L652,836Z" fill="#2f2f2f" stroke="#2f2f2f" fill-opacity="1" stroke-opacity="1"/><path d="M652,836L719,982L818,778Z" fill="#202020" stroke="#202020" fill-opacity="1" stroke-opacity="1"/><path d="M818,778L719,982L858,1013Z" fill="#131313" stroke="#131313" fill-opacity="1" stroke-opacity="1"/><path d="M818,778L858,1013L973,792Z" fill="#020202" stroke="#020202" fill-opacity="1" stroke-opacity="1"/><path d="M973,792L858,1013L980,1023Z" fill="#000000" stroke="#000000" fill-opacity="1" stroke-opacity="1"/><path d="M973,792L980,1023L1113,959Z" fill="#000000" stroke="#000000" fill-opacity="1" stroke-opacity="1"/><path d="M973,792L1113,959L1123,782Z" fill="#000000" stroke="#000000" fill-opacity="1" stroke-opacity="1"/><path d="M-28,1002L182,1023L124,982Z" fill="#7a7a7a" stroke="#7a7a7a" fill-opacity="1" stroke-opacity="1"/><path d="M182,1023L980,1023L522,1022Z" fill="#3b3b3b" stroke="#3b3b3b" fill-opacity="1" stroke-opacity="1"/><path d="M182,1023L522,1022L327,1011Z" fill="#5e5e5e" stroke="#5e5e5e" fill-opacity="1" stroke-opacity="1"/><path d="M522,1022L980,1023L858,1013Z" fill="#151515" stroke="#151515" fill-opacity="1" stroke-opacity="1"/><path d="M522,1022L858,1013L719,982Z" fill="#262626" stroke="#262626" fill-opacity="1" stroke-opacity="1"/></g><filter id="noise"><feTurbulence type="fractalNoise" in="fillPaint" fill="#F00" baseFrequency="0.7" numOctaves="10" stitchTiles="stitch"/><feComponentTransfer><feFuncR type="linear" slope="2" intercept="-.5"/><feFuncG type="linear" slope="2" intercept="-.5"/><feFuncB type="linear" slope="2" intercept="-.5"/></feComponentTransfer><feColorMatrix type="matrix" values="0.3333 0.3333 0.3333 0 0
 0.3333 0.3333 0.3333 0 0
 0.3333 0.3333 0.3333 0 0
 0 0 0 1 0"/></filter>></svg>
